<svg width="27" height="24" viewBox="0 0 27 24" fill="none" xmlns="http://www.w3.org/2000/svg">
<path d="M11.5248 16.5929H4.79761" stroke="white" stroke-width="1.5" stroke-linecap="round" stroke-linejoin="round"/>
<path d="M14.5254 6.90042H21.2526" stroke="white" stroke-width="1.5" stroke-linecap="round" stroke-linejoin="round"/>
<path fill-rule="evenodd" clip-rule="evenodd" d="M9.81233 6.84625C9.81233 5.5506 8.68254 4.5 7.28922 4.5C5.8959 4.5 4.76611 5.5506 4.76611 6.84625C4.76611 8.14191 5.8959 9.19251 7.28922 9.19251C8.68254 9.19251 9.81233 8.14191 9.81233 6.84625Z" stroke="white" stroke-width="1.5" stroke-linecap="round" stroke-linejoin="round"/>
<path fill-rule="evenodd" clip-rule="evenodd" d="M21.8492 16.5538C21.8492 15.2581 20.7203 14.2075 19.327 14.2075C17.9328 14.2075 16.803 15.2581 16.803 16.5538C16.803 17.8494 17.9328 18.9 19.327 18.9C20.7203 18.9 21.8492 17.8494 21.8492 16.5538Z" stroke="white" stroke-width="1.5" stroke-linecap="round" stroke-linejoin="round"/>
</svg>
