<svg width="20" height="21" viewBox="0 0 20 21" fill="none" xmlns="http://www.w3.org/2000/svg">
<g clip-path="url(#clip0_998_5383)">
<path d="M4.34574 19.7025C2.34848 19.5293 0.78125 17.8535 0.78125 15.8113V9.23818C0.78125 8.01978 1.34977 6.87115 2.31855 6.13225L7.63105 2.08033C9.03012 1.01326 10.9699 1.01326 12.3689 2.08033L12.7283 2.35443C11.7689 2.25975 10.7819 2.51943 9.97484 3.13502L3.65672 7.95393C3.32164 8.20947 3.125 8.60678 3.125 9.02818V16.866C3.125 17.9831 3.59402 18.9905 4.34574 19.7025V19.7025Z" fill="#CEE1F2"/>
<path d="M15.3125 20.4991H4.6875C2.10281 20.4991 0 18.3962 0 15.8116V9.23847C0 7.78569 0.689649 6.39237 1.84477 5.51132L7.15727 1.4594C8.83105 0.182803 11.1689 0.182803 12.8427 1.4594L18.1552 5.51132C19.3104 6.39233 20 7.78565 20 9.23847V15.8116C20 18.3962 17.8972 20.4991 15.3125 20.4991V20.4991ZM10 2.06347C9.33129 2.06347 8.66285 2.2762 8.10484 2.70175L2.79234 6.75366C2.02227 7.34104 1.5625 8.26991 1.5625 9.23847V15.8116C1.5625 17.5347 2.96438 18.9366 4.6875 18.9366H15.3125C17.0356 18.9366 18.4375 17.5347 18.4375 15.8116V9.23847C18.4375 8.26995 17.9777 7.34105 17.2077 6.7537L11.8952 2.70179C11.3373 2.27632 10.6686 2.06347 10 2.06347V2.06347Z" fill="#7B8BB2"/>
<path d="M12.8125 16.0847H7.22656C5.93422 16.0847 4.88281 15.0333 4.88281 13.741V10.8113C4.88281 9.51894 5.93422 8.46753 7.22656 8.46753H8.31441C8.97988 8.46753 9.58648 8.72976 10.0361 9.15636C10.4843 8.72964 11.09 8.46753 11.7557 8.46753H12.8125C14.1048 8.46753 15.1562 9.51894 15.1562 10.8113V13.741C15.1562 15.0333 14.1048 16.0847 12.8125 16.0847ZM7.22656 10.03C6.79578 10.03 6.44531 10.3805 6.44531 10.8113V13.741C6.44531 14.1718 6.79578 14.5222 7.22656 14.5222H12.8125C13.2433 14.5222 13.5938 14.1718 13.5938 13.741V10.8113C13.5938 10.3805 13.2433 10.03 12.8125 10.03H11.7557C11.2402 10.03 10.8207 10.451 10.8203 10.9687V10.9706V12.4128C10.8203 12.8443 10.4705 13.1941 10.0391 13.1941C9.60758 13.1941 9.25781 12.8443 9.25781 12.4128V10.9715C9.25496 10.4523 8.83199 10.03 8.31441 10.03H7.22656Z" fill="#7B8BB2"/>
</g>
<defs>
<clipPath id="clip0_998_5383">
<rect width="20" height="20" fill="white" transform="translate(0 0.5)"/>
</clipPath>
</defs>
</svg>
