<svg width="15" height="15" viewBox="0 0 15 15" fill="none" xmlns="http://www.w3.org/2000/svg">
<g clip-path="url(#clip0_414_226)">
<path fill-rule="evenodd" clip-rule="evenodd" d="M9.9999 12C10.2651 12 10.5195 11.8946 10.707 11.7071C10.8945 11.5196 10.9999 11.2652 10.9999 11V2C10.9999 1.73478 10.8945 1.48043 10.707 1.29289C10.5195 1.10536 10.2651 1 9.9999 1H0.999899C0.734683 1 0.480329 1.10536 0.292792 1.29289C0.105256 1.48043 -0.000100851 1.73478 -0.000100851 2V5.5C-0.000100851 5.63261 0.0525777 5.75979 0.146346 5.85355C0.240114 5.94732 0.367291 6 0.499899 6C0.632507 6 0.759684 5.94732 0.853452 5.85355C0.947221 5.75979 0.999899 5.63261 0.999899 5.5V2H9.9999V11H6.4999C6.36729 11 6.24011 11.0527 6.14635 11.1464C6.05258 11.2402 5.9999 11.3674 5.9999 11.5C5.9999 11.6326 6.05258 11.7598 6.14635 11.8536C6.24011 11.9473 6.36729 12 6.4999 12H9.9999ZM6.9999 5.5V8.5C6.9999 8.63261 6.94722 8.75979 6.85345 8.85355C6.75968 8.94732 6.63251 9 6.4999 9C6.36729 9 6.24011 8.94732 6.14635 8.85355C6.05258 8.75979 5.9999 8.63261 5.9999 8.5V6.707L0.853899 11.854C0.807411 11.9005 0.752222 11.9374 0.691483 11.9625C0.630743 11.9877 0.565643 12.0006 0.499899 12.0006C0.434155 12.0006 0.369055 11.9877 0.308316 11.9625C0.247576 11.9374 0.192387 11.9005 0.145899 11.854C0.0994111 11.8075 0.062535 11.7523 0.0373759 11.6916C0.0122168 11.6308 -0.000732422 11.5657 -0.000732422 11.5C-0.000732422 11.4343 0.0122168 11.3692 0.0373759 11.3084C0.062535 11.2477 0.0994111 11.1925 0.145899 11.146L5.2929 6H3.4999C3.36729 6 3.24011 5.94732 3.14635 5.85355C3.05258 5.75979 2.9999 5.63261 2.9999 5.5C2.9999 5.36739 3.05258 5.24021 3.14635 5.14645C3.24011 5.05268 3.36729 5 3.4999 5H6.4999C6.56538 4.99974 6.63027 5.01239 6.69086 5.03724C6.75144 5.06208 6.80654 5.09863 6.85298 5.1448C6.89942 5.19096 6.9363 5.24583 6.96151 5.30627C6.98672 5.3667 6.99977 5.43152 6.9999 5.497" fill="white"/>
</g>
<defs>
<clipPath id="clip0_414_226">
<rect width="15" height="15" fill="white"/>
</clipPath>
</defs>
</svg>
