<svg width="178" height="83" viewBox="0 0 178 83" fill="none" xmlns="http://www.w3.org/2000/svg">
<rect width="150" height="45" rx="8" fill="#376AED"/>
<path d="M53.176 30C52.872 30 52.656 29.88 52.528 29.64C52.416 29.4 52.416 29.176 52.528 28.968L59.8 11.76C59.928 11.424 60.16 11.256 60.496 11.256C60.816 11.256 61.048 11.424 61.192 11.76L68.488 28.968C68.616 29.192 68.608 29.424 68.464 29.664C68.32 29.888 68.112 30 67.84 30C67.68 30 67.544 29.968 67.432 29.904C67.336 29.824 67.248 29.704 67.168 29.544L60.112 12.72H60.88L53.848 29.544C53.784 29.704 53.696 29.824 53.584 29.904C53.472 29.968 53.336 30 53.176 30ZM54.952 25.296L55.528 24H65.512L66.064 25.296H54.952ZM71.995 30C71.787 30 71.611 29.936 71.467 29.808C71.339 29.664 71.275 29.488 71.275 29.28V11.976C71.275 11.752 71.339 11.576 71.467 11.448C71.611 11.32 71.787 11.256 71.995 11.256H76.795C77.963 11.256 78.995 11.512 79.891 12.024C80.803 12.536 81.515 13.248 82.027 14.16C82.539 15.056 82.795 16.088 82.795 17.256C82.795 18.424 82.539 19.464 82.027 20.376C81.515 21.288 80.803 22 79.891 22.512C78.995 23.024 77.963 23.28 76.795 23.28H72.715V29.28C72.715 29.488 72.651 29.664 72.523 29.808C72.395 29.936 72.219 30 71.995 30ZM72.715 21.84H76.795C77.691 21.84 78.475 21.648 79.147 21.264C79.835 20.864 80.371 20.32 80.755 19.632C81.155 18.944 81.355 18.152 81.355 17.256C81.355 16.36 81.155 15.576 80.755 14.904C80.371 14.216 79.835 13.68 79.147 13.296C78.475 12.896 77.691 12.696 76.795 12.696H72.715V21.84ZM86.5263 30C86.3183 30 86.1423 29.936 85.9983 29.808C85.8703 29.664 85.8063 29.488 85.8063 29.28V11.976C85.8063 11.752 85.8703 11.576 85.9983 11.448C86.1423 11.32 86.3183 11.256 86.5263 11.256H91.3263C92.4943 11.256 93.5263 11.512 94.4223 12.024C95.3343 12.536 96.0463 13.248 96.5583 14.16C97.0703 15.056 97.3263 16.088 97.3263 17.256C97.3263 18.424 97.0703 19.464 96.5583 20.376C96.0463 21.288 95.3343 22 94.4223 22.512C93.5263 23.024 92.4943 23.28 91.3263 23.28H87.2463V29.28C87.2463 29.488 87.1823 29.664 87.0543 29.808C86.9263 29.936 86.7503 30 86.5263 30ZM87.2463 21.84H91.3263C92.2223 21.84 93.0063 21.648 93.6783 21.264C94.3663 20.864 94.9023 20.32 95.2863 19.632C95.6863 18.944 95.8863 18.152 95.8863 17.256C95.8863 16.36 95.6863 15.576 95.2863 14.904C94.9023 14.216 94.3663 13.68 93.6783 13.296C93.0063 12.896 92.2223 12.696 91.3263 12.696H87.2463V21.84Z" fill="white"/>
<path d="M107.12 75C106.912 75 106.736 74.936 106.592 74.808C106.464 74.664 106.4 74.488 106.4 74.28V56.976C106.4 56.768 106.464 56.6 106.592 56.472C106.736 56.328 106.912 56.256 107.12 56.256C107.344 56.256 107.528 56.336 107.672 56.496L119.864 72.36V56.976C119.864 56.768 119.928 56.6 120.056 56.472C120.2 56.328 120.376 56.256 120.584 56.256C120.776 56.256 120.944 56.328 121.088 56.472C121.232 56.6 121.304 56.768 121.304 56.976V74.28C121.304 74.488 121.232 74.664 121.088 74.808C120.944 74.936 120.776 75 120.584 75C120.472 75 120.368 74.984 120.272 74.952C120.192 74.904 120.12 74.848 120.056 74.784L107.84 58.896V74.28C107.84 74.488 107.768 74.664 107.624 74.808C107.496 74.936 107.328 75 107.12 75ZM131.871 75.144C130.591 75.144 129.439 74.856 128.415 74.28C127.407 73.688 126.607 72.888 126.015 71.88C125.439 70.856 125.151 69.712 125.151 68.448C125.151 67.168 125.439 66.024 126.015 65.016C126.607 63.992 127.407 63.192 128.415 62.616C129.439 62.024 130.591 61.728 131.871 61.728C133.151 61.728 134.295 62.024 135.303 62.616C136.311 63.192 137.103 63.992 137.679 65.016C138.271 66.024 138.567 67.168 138.567 68.448L137.967 69.408C137.967 70.496 137.695 71.472 137.151 72.336C136.623 73.2 135.903 73.888 134.991 74.4C134.079 74.896 133.039 75.144 131.871 75.144ZM131.871 73.8C132.879 73.8 133.775 73.568 134.559 73.104C135.359 72.624 135.983 71.984 136.431 71.184C136.895 70.368 137.127 69.456 137.127 68.448C137.127 67.424 136.895 66.512 136.431 65.712C135.983 64.896 135.359 64.256 134.559 63.792C133.775 63.312 132.879 63.072 131.871 63.072C130.879 63.072 129.983 63.312 129.183 63.792C128.383 64.256 127.751 64.896 127.287 65.712C126.823 66.512 126.591 67.424 126.591 68.448C126.591 69.456 126.823 70.368 127.287 71.184C127.751 71.984 128.383 72.624 129.183 73.104C129.983 73.568 130.879 73.8 131.871 73.8ZM137.847 75C137.639 75 137.463 74.936 137.319 74.808C137.191 74.664 137.127 74.488 137.127 74.28V69.888L137.583 68.448H138.567V74.28C138.567 74.488 138.503 74.664 138.375 74.808C138.247 74.936 138.071 75 137.847 75ZM160.232 75C160.024 75 159.848 74.936 159.704 74.808C159.576 74.664 159.512 74.488 159.512 74.28V67.344C159.512 66.112 159.184 65.104 158.528 64.32C157.888 63.536 157.048 63.144 156.008 63.144C154.904 63.144 154 63.512 153.296 64.248C152.608 64.968 152.28 65.944 152.312 67.176H150.872C150.904 66.072 151.144 65.112 151.592 64.296C152.04 63.48 152.648 62.848 153.416 62.4C154.184 61.936 155.048 61.704 156.008 61.704C156.984 61.704 157.84 61.944 158.576 62.424C159.312 62.904 159.888 63.568 160.304 64.416C160.736 65.264 160.952 66.24 160.952 67.344V74.28C160.952 74.488 160.888 74.664 160.76 74.808C160.632 74.936 160.456 75 160.232 75ZM142.88 75C142.672 75 142.496 74.936 142.352 74.808C142.224 74.664 142.16 74.488 142.16 74.28V62.592C142.16 62.368 142.224 62.192 142.352 62.064C142.496 61.936 142.672 61.872 142.88 61.872C143.104 61.872 143.28 61.936 143.408 62.064C143.536 62.192 143.6 62.368 143.6 62.592V74.28C143.6 74.488 143.536 74.664 143.408 74.808C143.28 74.936 143.104 75 142.88 75ZM151.592 75C151.384 75 151.208 74.936 151.064 74.808C150.936 74.664 150.872 74.488 150.872 74.28V67.344C150.872 66.112 150.544 65.104 149.888 64.32C149.248 63.536 148.408 63.144 147.368 63.144C146.264 63.144 145.36 63.496 144.656 64.2C143.952 64.904 143.6 65.816 143.6 66.936H142.4C142.448 65.912 142.688 65.008 143.12 64.224C143.568 63.44 144.16 62.824 144.896 62.376C145.632 61.928 146.456 61.704 147.368 61.704C148.344 61.704 149.2 61.944 149.936 62.424C150.672 62.904 151.248 63.568 151.664 64.416C152.096 65.264 152.312 66.24 152.312 67.344V74.28C152.312 74.488 152.248 74.664 152.12 74.808C151.992 74.936 151.816 75 151.592 75ZM170.843 75.12C169.579 75.12 168.451 74.84 167.459 74.28C166.483 73.704 165.715 72.912 165.155 71.904C164.595 70.896 164.315 69.744 164.315 68.448C164.315 67.136 164.579 65.984 165.107 64.992C165.635 63.984 166.363 63.192 167.291 62.616C168.219 62.04 169.283 61.752 170.483 61.752C171.667 61.752 172.715 62.032 173.627 62.592C174.539 63.136 175.251 63.896 175.763 64.872C176.275 65.832 176.531 66.944 176.531 68.208C176.531 68.416 176.467 68.584 176.339 68.712C176.211 68.824 176.043 68.88 175.835 68.88H165.275V67.632H176.219L175.163 68.424C175.195 67.384 175.019 66.464 174.635 65.664C174.251 64.864 173.699 64.24 172.979 63.792C172.275 63.328 171.443 63.096 170.483 63.096C169.571 63.096 168.755 63.328 168.035 63.792C167.331 64.24 166.771 64.864 166.355 65.664C165.955 66.464 165.755 67.392 165.755 68.448C165.755 69.488 165.971 70.408 166.403 71.208C166.835 72.008 167.435 72.64 168.203 73.104C168.971 73.552 169.851 73.776 170.843 73.776C171.467 73.776 172.091 73.672 172.715 73.464C173.355 73.24 173.859 72.952 174.227 72.6C174.355 72.472 174.507 72.408 174.683 72.408C174.875 72.392 175.035 72.44 175.163 72.552C175.339 72.696 175.427 72.856 175.427 73.032C175.443 73.208 175.371 73.368 175.211 73.512C174.699 73.976 174.027 74.36 173.195 74.664C172.379 74.968 171.595 75.12 170.843 75.12Z" fill="#376AED"/>
</svg>
