<svg width="64" height="64" viewBox="0 0 64 64" fill="none" xmlns="http://www.w3.org/2000/svg">
<circle cx="32" cy="32" r="30.5" stroke="#C9DAE1" stroke-width="3"/>
<path d="M19 20.6677C19 20.6677 19.195 16.2679 23.5419 12.7401C26.1229 10.6455 29.2226 10.0389 32 10.0016C34.5364 9.9709 36.8032 10.3935 38.1588 11.0442C40.4757 12.1615 45 14.8813 45 20.6677C45 26.7567 41.0485 29.5166 36.5568 32.5578C32.065 35.599 33 37.5815 33 41" stroke="#87ADBD" stroke-width="4" stroke-miterlimit="10" stroke-linecap="round"/>
<path d="M33 53C34.6569 53 36 51.6569 36 50C36 48.3431 34.6569 47 33 47C31.3431 47 30 48.3431 30 50C30 51.6569 31.3431 53 33 53Z" fill="#87ADBD"/>
</svg>
