<svg width="17" height="23" viewBox="0 0 17 23" fill="none" xmlns="http://www.w3.org/2000/svg">
<path d="M8.31883 3.33313C7.51853 3.33313 6.73621 3.57044 6.07079 4.01506C5.40537 4.45968 4.88673 5.09164 4.58047 5.83102C4.27421 6.57039 4.19408 7.38398 4.35021 8.1689C4.50634 8.95381 4.89172 9.67481 5.45762 10.2407C6.02351 10.8066 6.7445 11.192 7.52942 11.3481C8.31434 11.5042 9.12792 11.4241 9.8673 11.1178C10.6067 10.8116 11.2386 10.293 11.6833 9.62753C12.1279 8.96211 12.3652 8.17979 12.3652 7.37949C12.3652 6.30633 11.9389 5.27712 11.18 4.51828C10.4212 3.75944 9.39199 3.33313 8.31883 3.33313ZM8.31883 10.0135C7.79787 10.0135 7.2886 9.85903 6.85544 9.5696C6.42228 9.28017 6.08467 8.86879 5.88531 8.38749C5.68595 7.90618 5.63378 7.37657 5.73542 6.86562C5.83705 6.35467 6.08792 5.88533 6.45629 5.51696C6.82467 5.14858 7.294 4.89772 7.80495 4.79608C8.3159 4.69445 8.84552 4.74661 9.32682 4.94598C9.80813 5.14534 10.2195 5.48295 10.5089 5.91611C10.7984 6.34927 10.9528 6.85853 10.9528 7.37949C10.951 8.07685 10.6726 8.74501 10.1789 9.23746C9.68509 9.72991 9.01619 10.0065 8.31883 10.0064V10.0135Z" fill="#376AED"/>
<path d="M8.3187 6.99054e-10C6.11911 0.00183716 4.00963 0.874018 2.45098 2.42605C0.892339 3.97808 0.011193 6.08383 0 8.28339C0 11.5812 1.85017 14.3423 3.20602 16.3549L3.45318 16.7221C4.80216 18.6773 6.24931 20.5628 7.78907 22.3715L8.32576 23L8.86245 22.3715C10.402 20.5626 11.8492 18.6771 13.1983 16.7221L13.4455 16.3479C14.7943 14.3353 16.6445 11.5812 16.6445 8.28339C16.6333 6.08261 15.7511 3.97579 14.191 2.42356C12.6308 0.871329 10.5195 -2.84983e-05 8.3187 6.99054e-10ZM12.2662 15.5358L12.012 15.91C10.7974 17.732 9.18729 19.7728 8.3187 20.7826C7.48542 19.7728 5.84004 17.732 4.62542 15.91L4.37826 15.5358C3.12834 13.6715 1.41234 11.1222 1.41234 8.25514C1.41234 7.34819 1.59098 6.45011 1.93806 5.6122C2.28513 4.77428 2.79385 4.01293 3.43517 3.37161C4.07648 2.7303 4.83783 2.22158 5.67575 1.8745C6.51367 1.52743 7.41174 1.34879 8.3187 1.34879C9.22565 1.34879 10.1237 1.52743 10.9616 1.8745C11.7996 2.22158 12.5609 2.7303 13.2022 3.37161C13.8435 4.01293 14.3523 4.77428 14.6993 5.6122C15.0464 6.45011 15.2251 7.34819 15.2251 8.25514C15.2251 11.1504 13.5161 13.6997 12.2662 15.5358Z" fill="#376AED"/>
</svg>
