<svg width="42" height="41" viewBox="0 0 42 41" fill="none" xmlns="http://www.w3.org/2000/svg">
<path d="M23.5405 3.08007L23.5402 3.07931C22.9881 1.96304 21.8602 1.51776 20.9185 1.51776C19.9766 1.51776 18.8513 1.96264 18.2957 3.0731L18.2957 3.07309L18.2919 3.08071L13.8974 11.9907L4.06715 13.419L4.06686 13.419C2.97705 13.5776 2.04896 14.3391 1.7021 15.4104L1.70135 15.4127C1.36306 16.4634 1.63901 17.6315 2.44801 18.4108L9.55964 25.3445L7.88027 35.133L7.87906 35.1403C7.69868 36.2241 8.13597 37.3426 9.0494 38.002C9.94217 38.6465 11.134 38.7466 12.1283 38.2167C12.1305 38.2155 12.1327 38.2144 12.1349 38.2132L20.9194 33.5992L29.7058 38.2174C29.7066 38.2178 29.7074 38.2183 29.7082 38.2187C30.154 38.4537 30.6255 38.5531 31.0751 38.5531C31.6769 38.5531 32.2721 38.3701 32.7812 38.0077L32.7898 38.0016L32.7983 37.9954C33.6981 37.3353 34.1409 36.2305 33.9595 35.1403L33.9582 35.133L32.2789 25.3445L39.3931 18.4082C40.1994 17.6239 40.4694 16.4646 40.1326 15.4161C39.7937 14.3476 38.8641 13.5778 37.7714 13.419L37.5582 14.8858L37.7714 13.419L27.9407 11.9906L23.5405 3.08007Z" fill="#FFD029" stroke="white" stroke-width="2.96448"/>
</svg>
