<svg width="42" height="41" viewBox="0 0 42 41" fill="none" xmlns="http://www.w3.org/2000/svg">
<path d="M23.562 3.08007L23.5617 3.07931C23.0096 1.96304 21.8817 1.51776 20.94 1.51776C19.9981 1.51776 18.8728 1.96264 18.3172 3.0731L18.3172 3.07309L18.3134 3.08071L13.9189 11.9907L4.08864 13.419L4.08834 13.419C2.99854 13.5776 2.07044 14.3391 1.72358 15.4104L1.72284 15.4127C1.38454 16.4634 1.66049 17.6315 2.4695 18.4108L9.58112 25.3445L7.90176 35.133L7.90055 35.1403C7.72016 36.2241 8.15745 37.3426 9.07089 38.002C9.96365 38.6465 11.1555 38.7466 12.1498 38.2167C12.152 38.2155 12.1542 38.2144 12.1564 38.2132L20.9409 33.5992L29.7273 38.2174C29.7281 38.2178 29.7289 38.2183 29.7297 38.2187C30.1754 38.4537 30.647 38.5531 31.0966 38.5531C31.6984 38.5531 32.2935 38.3701 32.8026 38.0077L32.8112 38.0016L32.8198 37.9954C33.7196 37.3353 34.1624 36.2305 33.981 35.1403L33.9797 35.133L32.3004 25.3445L39.4146 18.4082C40.2209 17.6239 40.4909 16.4646 40.154 15.4161C39.8152 14.3476 38.8856 13.5778 37.7929 13.419L37.5797 14.8858L37.7929 13.419L27.9622 11.9906L23.562 3.08007Z" fill="#EFF0F7" stroke="white" stroke-width="2.96448"/>
</svg>
