<svg width="20" height="20" viewBox="0 0 20 20" fill="none" xmlns="http://www.w3.org/2000/svg">
<mask id="path-1-inside-1_869_455" fill="white">
<path d="M0.499997 10C0.499997 11.8789 1.05716 13.7156 2.10104 15.2779C3.14491 16.8402 4.62861 18.0578 6.3645 18.7769C8.1004 19.4959 10.0105 19.684 11.8534 19.3175C13.6962 18.9509 15.3889 18.0461 16.7175 16.7175C18.0461 15.3889 18.9509 13.6962 19.3175 11.8534C19.684 10.0105 19.4959 8.10041 18.7769 6.36451C18.0578 4.62861 16.8402 3.14491 15.2779 2.10104C13.7157 1.05716 11.8789 0.499999 10 0.499999L10 10L0.499997 10Z"/>
</mask>
<path d="M0.499997 10C0.499997 11.8789 1.05716 13.7156 2.10104 15.2779C3.14491 16.8402 4.62861 18.0578 6.3645 18.7769C8.1004 19.4959 10.0105 19.684 11.8534 19.3175C13.6962 18.9509 15.3889 18.0461 16.7175 16.7175C18.0461 15.3889 18.9509 13.6962 19.3175 11.8534C19.684 10.0105 19.4959 8.10041 18.7769 6.36451C18.0578 4.62861 16.8402 3.14491 15.2779 2.10104C13.7157 1.05716 11.8789 0.499999 10 0.499999L10 10L0.499997 10Z" stroke="white" stroke-width="2" mask="url(#path-1-inside-1_869_455)"/>
<path d="M7.5 0.500001C6.58075 0.500001 5.67049 0.681062 4.82122 1.03284C3.97194 1.38463 3.20026 1.90024 2.55025 2.55025C1.90024 3.20026 1.38463 3.97194 1.03284 4.82122C0.68106 5.6705 0.5 6.58075 0.5 7.5L7.5 7.5L7.5 0.500001Z" fill="#0047CC"/>
</svg>
