<svg width="24" height="24" viewBox="0 0 24 24" fill="none" xmlns="http://www.w3.org/2000/svg">
<path d="M12.35 4.0425V5.7595C15.7075 6.176 18.3 9.032 18.3 12.5C18.3 15.2285 16.668 17.6 14.288 18.688L12.35 16.75V21H16.6L15.563 19.963C18.2235 18.5095 20 15.696 20 12.5C20 8.097 16.6425 4.4675 12.35 4.0425ZM10.65 4C8.9925 4.17 7.42 4.816 6.128 5.8785L7.335 7.0855C8.29983 6.34173 9.44286 5.86401 10.65 5.7V4ZM4.87 7.128C3.816 8.42 3.17 9.9925 3 11.65H4.7C4.8615 10.443 5.3375 9.2955 6.0855 8.335L4.87 7.128ZM3 13.35C3.17 15.0075 3.8245 16.58 4.887 17.872L6.094 16.665C5.34771 15.7008 4.86708 14.5578 4.7 13.35H3ZM7.3435 17.9145L6.128 19.1215C7.41947 20.1759 8.99153 20.829 10.65 21V19.3C9.44443 19.1397 8.30321 18.6615 7.3435 17.9145Z" fill="#2D4379"/>
<path d="M13.212 12.256H13.308L13.908 12.976V13.852C13.596 13.852 13.392 13.908 13.296 14.02C13.208 14.132 13.164 14.312 13.164 14.56V14.74C13.22 14.74 13.268 14.708 13.308 14.644L13.644 14.86L14.244 15.58C14.196 15.956 14.06 16.24 13.836 16.432C13.612 16.624 13.34 16.72 13.02 16.72C12.708 16.72 12.4 16.612 12.096 16.396C11.792 16.612 11.476 16.72 11.148 16.72C10.828 16.72 10.46 16.528 10.044 16.144C9.628 15.76 9.396 15.332 9.348 14.86L9.684 14.644C9.716 14.716 9.792 14.752 9.912 14.752C10.256 14.752 10.428 14.452 10.428 13.852H10.284L9.684 13.132V12.256C10.012 12.256 10.244 12.268 10.38 12.292V10.444H9.912L9.312 9.724V8.716C9.584 8.716 9.876 8.584 10.188 8.32C10.5 8.056 10.672 7.816 10.704 7.6H12.612L13.212 8.32V12.256ZM11.052 12.652C11.132 12.604 11.228 12.508 11.34 12.364H11.652C11.756 12.508 11.852 12.604 11.94 12.652C12.02 12.54 12.124 12.452 12.252 12.388V7.936H10.944C10.896 8.168 10.712 8.4 10.392 8.632C10.08 8.856 9.832 8.968 9.648 8.968V9.364H10.74V12.388C10.852 12.444 10.956 12.532 11.052 12.652ZM11.532 15.268C11.82 15.516 12.136 15.64 12.48 15.64C12.832 15.64 13.088 15.44 13.248 15.04C13.192 15.072 13.128 15.088 13.056 15.088C12.496 15.088 12.216 14.676 12.216 13.852C12.216 13.18 12.48 12.844 13.008 12.844V12.544C12.856 12.544 12.74 12.552 12.66 12.568C12.58 12.576 12.48 12.624 12.36 12.712C12.24 12.8 12.132 12.932 12.036 13.108C11.844 13.068 11.664 12.928 11.496 12.688C11.328 12.904 11.148 13.044 10.956 13.108C10.852 12.932 10.74 12.8 10.62 12.712C10.5 12.624 10.4 12.576 10.32 12.568C10.24 12.552 10.128 12.544 9.984 12.544V12.844C10.512 12.844 10.776 13.18 10.776 13.852C10.776 14.46 10.648 14.84 10.392 14.992C10.272 15.056 10.12 15.088 9.936 15.088L9.744 15.04C9.904 15.44 10.156 15.64 10.5 15.64C10.852 15.64 11.172 15.516 11.46 15.268H11.532Z" fill="#2D4379"/>
</svg>
