<svg width="63" height="63" viewBox="0 0 63 63" fill="none" xmlns="http://www.w3.org/2000/svg">
<path d="M58.2818 10.8621H4.71823C2.11235 10.8621 0 12.9744 0 15.5803V47.4198C0 50.0256 2.11235 52.138 4.71823 52.138H58.2818C60.8875 52.138 63 50.0257 63 47.4198V15.5803C63 12.9744 60.8877 10.8621 58.2818 10.8621Z" fill="#41479B"/>
<path d="M62.9347 14.8004C62.5628 12.566 60.6217 10.8621 58.2818 10.8621H57.0541L36.931 24.0462V10.8622H26.069V24.0463L5.94587 10.8622H4.71823C2.37825 10.8622 0.437186 12.566 0.0653379 14.8005L17.2646 26.0692H0V36.9313H17.2646L0.0653379 48.1996C0.437186 50.4341 2.37825 52.138 4.71823 52.138H5.94587L26.069 38.9539V52.138H36.931V38.9539L57.0541 52.138H58.2818C60.6217 52.138 62.5628 50.4342 62.9347 48.1996L45.7354 36.931H63V26.0689H45.7354L62.9347 14.8004Z" fill="#F5F5F5"/>
<path d="M34.7587 10.8621H28.2414V28.2413H0V34.7586H28.2414V52.1379H34.7587V34.7586H63V28.2413H34.7587V10.8621Z" fill="#FF4B55"/>
<path d="M3.0507 51.8336L26.0092 36.9309H22.019L1.13498 50.4872C1.64599 51.0836 2.30269 51.551 3.0507 51.8336Z" fill="#FF4B55"/>
<path d="M42.622 36.9309H38.6318L60.8683 51.3649C61.4906 50.9563 62.0099 50.4043 62.3802 49.7561L42.622 36.9309Z" fill="#FF4B55"/>
<path d="M0.498199 13.4705L19.9064 26.0689H23.8966L1.90413 11.793C1.31363 12.2325 0.830426 12.8071 0.498199 13.4705Z" fill="#FF4B55"/>
<path d="M40.9212 26.069L61.8435 12.4877C61.3268 11.8932 60.6649 11.4286 59.9118 11.1514L36.931 26.069H40.9212Z" fill="#FF4B55"/>
</svg>
