<svg width="18" height="16" viewBox="0 0 18 16" fill="none" xmlns="http://www.w3.org/2000/svg">
<path fill-rule="evenodd" clip-rule="evenodd" d="M12.2188 0C14.9786 0 17.2234 2.24482 17.2234 5.00537V10.9946C17.2234 13.7543 14.9786 16 12.2188 16H5.00537C2.24566 16 0 13.7543 0 10.9946V5.00537C0 2.24482 2.24566 0 5.00537 0H12.2188ZM12.2188 1.25176H5.00537C2.9358 1.25176 1.25176 2.9358 1.25176 5.00537V10.9946C1.25176 13.0642 2.9358 14.7482 5.00537 14.7482H12.2188C14.2884 14.7482 15.9716 13.0642 15.9716 10.9946V10.761L13.2195 10.7615C11.6364 10.7615 10.348 9.47382 10.3471 7.8916C10.3471 6.3077 11.6356 5.01923 13.2195 5.01839L15.9716 5.01789V5.00537C15.9716 2.9358 14.2884 1.25176 12.2188 1.25176ZM15.9716 6.26965L13.2195 6.27015C12.3257 6.27099 11.5989 6.99784 11.5989 7.89076C11.5989 8.78285 12.3266 9.50971 13.2195 9.50971L15.9716 9.50921V6.26965ZM13.6014 7.21314C13.9469 7.21314 14.2273 7.49354 14.2273 7.83902C14.2273 8.18451 13.9469 8.4649 13.6014 8.4649H13.341C12.9955 8.4649 12.7151 8.18451 12.7151 7.83902C12.7151 7.49354 12.9955 7.21314 13.341 7.21314H13.6014ZM8.91671 3.78708C9.26219 3.78708 9.54259 4.06747 9.54259 4.41296C9.54259 4.75844 9.26219 5.03884 8.91671 5.03884H4.4112C4.06572 5.03884 3.78532 4.75844 3.78532 4.41296C3.78532 4.06747 4.06572 3.78708 4.4112 3.78708H8.91671Z" fill="#2D4379"/>
</svg>
