<svg width="24" height="24" viewBox="0 0 24 24" fill="none" xmlns="http://www.w3.org/2000/svg">
<path d="M6.34574 21.2025C4.34848 21.0293 2.78125 19.3535 2.78125 17.3113V10.7382C2.78125 9.5198 3.34977 8.37117 4.31855 7.63226L9.63105 3.58035C11.0301 2.51328 12.9699 2.51328 14.3689 3.58035L14.7283 3.85445C13.7689 3.75976 12.7819 4.01945 11.9748 4.63503L5.65672 9.45394C5.32164 9.70949 5.125 10.1068 5.125 10.5282V18.366C5.125 19.4831 5.59402 20.4905 6.34574 21.2025Z" fill="#CEE1F2"/>
<path d="M17.3125 21.999H6.6875C4.10281 21.999 2 19.8962 2 17.3115V10.7384C2 9.28562 2.68965 7.8923 3.84477 7.01125L9.15727 2.95933C10.8311 1.68273 13.1689 1.68273 14.8427 2.95933L20.1552 7.01125C21.3104 7.89226 22 9.28558 22 10.7384V17.3115C22 19.8962 19.8972 21.999 17.3125 21.999ZM12 3.56339C11.3313 3.56339 10.6629 3.77613 10.1048 4.20168L4.79234 8.25359C4.02227 8.84097 3.5625 9.76984 3.5625 10.7384V17.3115C3.5625 19.0346 4.96438 20.4365 6.6875 20.4365H17.3125C19.0356 20.4365 20.4375 19.0346 20.4375 17.3115V10.7384C20.4375 9.76988 19.9777 8.84097 19.2077 8.25363L13.8952 4.20171C13.3373 3.77625 12.6686 3.56339 12 3.56339Z" fill="#376AED"/>
<path d="M14.8125 17.5846H9.22656C7.93422 17.5846 6.88281 16.5332 6.88281 15.2408V12.3111C6.88281 11.0188 7.93422 9.96737 9.22656 9.96737H10.3144C10.9799 9.96737 11.5865 10.2296 12.0361 10.6562C12.4843 10.2295 13.09 9.96737 13.7557 9.96737H14.8125C16.1048 9.96737 17.1562 11.0188 17.1562 12.3111V15.2408C17.1562 16.5332 16.1048 17.5846 14.8125 17.5846ZM9.22656 11.5299C8.79578 11.5299 8.44531 11.8803 8.44531 12.3111V15.2408C8.44531 15.6716 8.79578 16.0221 9.22656 16.0221H14.8125C15.2433 16.0221 15.5938 15.6716 15.5938 15.2408V12.3111C15.5938 11.8803 15.2433 11.5299 14.8125 11.5299H13.7557C13.2402 11.5299 12.8207 11.9508 12.8203 12.4685V12.4705V13.9127C12.8203 14.3442 12.4705 14.6939 12.0391 14.6939C11.6076 14.6939 11.2578 14.3442 11.2578 13.9127V12.4714C11.255 11.9521 10.832 11.5299 10.3144 11.5299H9.22656Z" fill="#4DC4E7"/>
</svg>
